<?xml version="1.0" encoding="UTF-8"?>
<!DOCTYPE svg PUBLIC "-//W3C//DTD SVG 1.1//EN" "http://www.w3.org/Graphics/SVG/1.1/DTD/svg11.dtd">
<!-- Creator: CorelDRAW -->
<svg xmlns="http://www.w3.org/2000/svg" xml:space="preserve" width="807.732mm" height="210.283mm" version="1.1" style="shape-rendering:geometricPrecision; text-rendering:geometricPrecision; image-rendering:optimizeQuality; fill-rule:evenodd; clip-rule:evenodd"
viewBox="0 0 20831.25 5423.16"
 xmlns:xlink="http://www.w3.org/1999/xlink"
 xmlns:xodm="http://www.corel.com/coreldraw/odm/2003">
 <defs>
  <style type="text/css">
   <![CDATA[
    .fil1 {fill:#FF6600}
    .fil2 {fill:#FF6600;fill-rule:nonzero}
    .fil0 {fill:white;fill-rule:nonzero}
   ]]>
  </style>
 </defs>
 <g id="Layer_x0020_1">
  <metadata id="CorelCorpID_0Corel-Layer"/>
  <path class="fil0" d="M1033.47 4275.76l109.2 -347.45 -728.14 -881.51 -414.54 1228.96 1033.47 0zm395.38 -1259.8l168.7 -537.88 369.03 -1179.54 30.99 0 348.44 1109.09 808.9 -536.54 -531.57 -1575.91 -1280.68 0 -831.24 2464.34 841.43 306.85 76 -50.41zm1122.52 45.97l293.36 934.66 87.8 279.16 1033.47 0 -669.29 -1984.23 -745.34 770.4z"/>
  <polygon class="fil1" points="373.75,2825.59 1367.31,3187.91 3907.91,1502.75 1411.99,4082.51 "/>
  <path class="fil0" d="M4403.03 5423.16l961.7 0 0 -1622.52 19.38 0c122.75,279.65 394.09,533.46 850.02,533.46 668.2,0 1207.2,-523.3 1207.2,-1551.45 0,-1065.99 -570.37,-1551.45 -1201.66,-1551.45 -477.16,0 -739.27,278.73 -855.56,556.53l-28.61 0 0 -517.76 -952.47 0 0 4153.2zm942.32 -2642.36c0,-493.77 203.97,-798.34 556.53,-798.34 356.25,0 552.84,311.95 552.84,798.34 0,487.31 -196.59,803.87 -552.84,803.87 -352.56,0 -556.53,-314.72 -556.53,-803.87z"/>
  <path class="fil0" d="M7946.18 5423.16l961.7 0 0 -1622.52 19.38 0c122.75,279.65 394.09,533.46 850.02,533.46 668.2,0 1207.2,-523.3 1207.2,-1551.45 0,-1065.99 -570.37,-1551.45 -1201.66,-1551.45 -477.16,0 -739.27,278.73 -855.56,556.53l-28.61 0 0 -517.76 -952.47 0 0 4153.2zm942.32 -2642.36c0,-493.77 203.97,-798.34 556.53,-798.34 356.25,0 552.84,311.95 552.84,798.34 0,487.31 -196.59,803.87 -552.84,803.87 -352.56,0 -556.53,-314.72 -556.53,-803.87z"/>
  <polygon class="fil0" points="12451.01,263.04 11489.32,263.04 11489.32,4290.72 12451.01,4290.72 "/>
  <path class="fil0" d="M13060.15 4290.72l961.7 0 0 -3020.76 -961.7 0 0 3020.76zm481.77 -3372.4c273.19,0 493.77,-206.74 493.77,-460.54 0,-253.81 -220.58,-457.77 -493.77,-457.77 -271.34,0 -493.77,203.97 -493.77,457.77 0,253.81 222.43,460.54 493.77,460.54z"/>
  <path class="fil2" d="M16603.29 5423.16l961.7 0 0 -4153.2 -951.54 0 0 517.76 -29.53 0c-114.44,-277.8 -377.48,-556.53 -853.72,-556.53 -631.29,0 -1203.51,485.46 -1203.51,1551.45 0,1028.15 540.84,1551.45 1208.12,1551.45 455.93,0 727.27,-253.81 849.1,-533.46l19.38 0 0 1622.52zm-534.38 -1838.48c-356.25,0 -554.68,-316.56 -554.68,-803.87 0,-486.39 196.59,-798.34 554.68,-798.34 351.64,0 556.53,304.57 556.53,798.34 0,489.16 -206.74,803.87 -556.53,803.87z"/>
  <path class="fil2" d="M19025.99 4341.48c420.86,0 711.58,-162.44 876.79,-471.62l24 0 0 420.86 904.47 0 0 -2052.6c0,-639.6 -568.53,-1006.92 -1337.33,-1006.92 -812.18,0 -1272.72,408.86 -1349.33,958.93l886.94 31.38c41.53,-191.97 201.2,-310.1 454.08,-310.1 236.27,0 385.79,113.52 385.79,316.56l0 10.15c0,184.59 -200.28,223.35 -716.2,268.57 -610.98,51.69 -1122.29,277.8 -1122.29,946.01 0,598.06 414.4,888.79 993.08,888.79zm297.18 -628.52c-222.43,0 -380.25,-106.14 -380.25,-307.34 0,-194.74 154.13,-312.87 427.32,-353.48 179.05,-25.84 398.71,-65.53 506.69,-121.83l0 287.03c0,294.42 -247.35,495.62 -553.76,495.62z"/>
 </g>
</svg>
